<svg width="24" height="24" viewBox="0 0 24 24" fill="none" xmlns="http://www.w3.org/2000/svg">
<path d="M19.8262 10.8887L19.8262 10.8888C19.4087 13.044 17.4617 15.2046 15.3987 16.9144C14.3959 17.7456 13.4193 18.427 12.6924 18.9008C12.4222 19.077 12.1875 19.2239 12 19.3384C11.8125 19.2239 11.5778 19.077 11.3075 18.9008C10.5806 18.427 9.60404 17.7456 8.60123 16.9144C6.53823 15.2046 4.59128 13.044 4.17372 10.8888L4.1737 10.8887C3.73285 8.61412 4.18218 7.02293 4.93337 6.02302C5.68967 5.01629 6.82923 4.5 7.99997 4.5H8.03179L8.06354 4.49798C8.67113 4.45928 9.27812 4.58233 9.82267 4.85461C10.3672 5.12688 10.8299 5.53864 11.1635 6.04793L12 7.32504L12.8365 6.04793C13.1701 5.53864 13.6327 5.12688 14.1773 4.85461C14.7218 4.58233 15.3288 4.45928 15.9364 4.49798L15.9682 4.5H16C17.1707 4.5 18.3103 5.01629 19.0666 6.02302C19.8178 7.02293 20.2671 8.61412 19.8262 10.8887Z" stroke="#F66F6F" stroke-width="2"/>
</svg>
